<svg width="24" height="24" viewBox="0 0 24 24" fill="none" xmlns="http://www.w3.org/2000/svg">
<path opacity="0.5" d="M3.464 20.535C4.93 22 7.286 22 12 22C16.714 22 19.071 22 20.535 20.535C22 19.072 22 16.714 22 12C22 7.286 22 4.929 20.535 3.464C19.072 2 16.714 2 12 2C7.286 2 4.929 2 3.464 3.464C2 4.93 2 7.286 2 12C2 16.714 2 19.071 3.464 20.535Z" fill="black"/>
<path d="M12.7498 6.5C12.7498 6.30109 12.6708 6.11032 12.5302 5.96967C12.3895 5.82902 12.1987 5.75 11.9998 5.75C11.8009 5.75 11.6102 5.82902 11.4695 5.96967C11.3288 6.11032 11.2498 6.30109 11.2498 6.5V12.5C11.2498 12.9268 11.1658 13.3494 11.0024 13.7437C10.8391 14.138 10.5997 14.4963 10.2979 14.7981C9.99613 15.0999 9.63786 15.3393 9.24355 15.5026C8.84924 15.6659 8.42662 15.75 7.99983 15.75H7.80983L8.02983 15.53C8.10351 15.4613 8.16262 15.3785 8.20361 15.2865C8.2446 15.1945 8.26664 15.0952 8.26842 14.9945C8.2702 14.8938 8.25167 14.7938 8.21395 14.7004C8.17623 14.607 8.12009 14.5222 8.04887 14.451C7.97765 14.3797 7.89281 14.3236 7.79943 14.2859C7.70604 14.2482 7.60601 14.2296 7.50531 14.2314C7.4046 14.2332 7.30529 14.2552 7.21329 14.2962C7.12129 14.3372 7.03849 14.3963 6.96983 14.47L5.46983 15.97C5.32938 16.1106 5.25049 16.3012 5.25049 16.5C5.25049 16.6988 5.32938 16.8894 5.46983 17.03L6.96983 18.53C7.112 18.6625 7.30005 18.7346 7.49435 18.7312C7.68865 18.7277 7.87404 18.649 8.01145 18.5116C8.14886 18.3742 8.22758 18.1888 8.231 17.9945C8.23443 17.8002 8.16231 17.6122 8.02983 17.47L7.80983 17.25H7.99983C9.67983 17.25 11.1548 16.378 11.9998 15.063C12.4294 15.734 13.021 16.286 13.72 16.6682C14.4191 17.0504 15.2031 17.2505 15.9998 17.25H16.1898L15.9698 17.47C15.8961 17.5387 15.837 17.6215 15.796 17.7135C15.7551 17.8055 15.733 17.9048 15.7312 18.0055C15.7295 18.1062 15.748 18.2062 15.7857 18.2996C15.8234 18.393 15.8796 18.4778 15.9508 18.549C16.022 18.6203 16.1068 18.6764 16.2002 18.7141C16.2936 18.7518 16.3936 18.7704 16.4944 18.7686C16.5951 18.7668 16.6944 18.7448 16.7864 18.7038C16.8784 18.6628 16.9612 18.6037 17.0298 18.53L18.5298 17.03C18.6703 16.8894 18.7492 16.6988 18.7492 16.5C18.7492 16.3012 18.6703 16.1106 18.5298 15.97L17.0298 14.47C16.9612 14.3963 16.8784 14.3372 16.7864 14.2962C16.6944 14.2552 16.5951 14.2332 16.4944 14.2314C16.3936 14.2296 16.2936 14.2482 16.2002 14.2859C16.1068 14.3236 16.022 14.3797 15.9508 14.451C15.8796 14.5222 15.8234 14.607 15.7857 14.7004C15.748 14.7938 15.7295 14.8938 15.7312 14.9945C15.733 15.0952 15.7551 15.1945 15.796 15.2865C15.837 15.3785 15.8961 15.4613 15.9698 15.53L16.1898 15.75H15.9998C15.1379 15.75 14.3112 15.4076 13.7017 14.7981C13.0922 14.1886 12.7498 13.362 12.7498 12.5V6.5Z" fill="black"/>
</svg>
